<?xml version="1.0" encoding="utf-8"?>
<!-- Generator: Adobe Illustrator 28.0.0, SVG Export Plug-In . SVG Version: 6.00 Build 0)  -->
<svg version="1.1" id="Layer_1" xmlns="http://www.w3.org/2000/svg" xmlns:xlink="http://www.w3.org/1999/xlink" x="0px" y="0px"
	 viewBox="0 0 512 512" style="enable-background:new 0 0 512 512;" xml:space="preserve">
<style type="text/css">
	.st0{fill:#FFFFFF;}
</style>
<g>
	<g>
		<path class="st0" d="M480.9,483.6c-149.9,0-299.8,0-449.7,0c0-151.7,0-303.4,0-455.2c149.9,0,299.8,0,449.7,0
			C480.9,180.1,480.9,331.8,480.9,483.6z M201.8,440.5c0-0.5,0-0.8-0.1-1.2c-0.5-3.1-1-6.1-1.4-9.1c-1.8-14.7-3.8-29.3-5.4-44
			c-1.3-11.6-2.1-23.3-3-35c-0.6-8.7-1.1-17.4-1.2-26.1c-0.2-13.3-0.1-26.7,0.2-40c0.2-9.1,1.2-18.2,1.8-27.3c0.1-1.3,0.4-2.6,0.6-4
			c9.7,0,19.3,0,29.1,0c0.3,1.1,0.6,2.1,0.8,3.2c3.2,16.8,4.8,33.7,5.9,50.8c0.6,9.2,1,18.4,1.1,27.6c0.1,13.3,0.1,26.7-0.3,40
			c-0.3,11.6-1,23.3-1.7,34.9c-0.4,6-1,12-1.5,18c-0.4,4.5-0.9,8.9-1.3,13.4c-0.1,1,0,2,0,3c14.8,2.2,47.5,0.2,56.2-3.4
			c0-45.9,0-91.9,0-137.9c2.6-0.5,44.1-0.4,45.7,0.1c0,8,0,16.1,0,24.1c0,8.1,0,16.3,0,24.4c0,8.1,0,16.1,0,24.2
			c0,8.1,0,16.3,0,24.4c0,8,0,16.1,0,24.4c1.2-0.6,2.1-1,3-1.5c29.4-15.7,53.5-37.3,72.3-64.9c5.6-8.1,10.6-16.6,15-25.4
			c10-20,16.7-41,19.8-63.2c0.8-5.8,1.2-11.6,0.9-17.4c-0.2-3.2-0.6-6.4-1.7-9.5c-2.7-7.6-7.7-13-15.6-15.2c-2.7-0.7-5.5-1-8.3-1.4
			c-4.1-0.5-8.2-1-12.1-2.7c-12.5-5.4-19.6-19.8-16.3-33.5c1.6-6.9,5.2-12.5,10.4-17.1c3.2-2.8,5.6-6.1,7-10.1
			c3.6-9.8,2.9-19.4-1.9-28.7c-3.3-6.4-7.5-12.2-12-17.7c-9-11-19.2-20.8-31.3-28.2c-23.6-14.4-49.4-22.2-76.9-24.1
			c-8.5-0.6-17-0.4-25.4,0.2c-12.3,1-24.5,3.2-36.3,6.7c-35,10.2-64.9,28.8-89.6,55.6c-33.2,36-51.8,78.4-55.5,127.3
			c-1.1,14.9-0.3,29.7,2.1,44.5c3.1,19,8.8,37.1,17.7,54.2c23.2,44.4,59,73.4,107.3,86.9C200.3,440.2,201,440.3,201.8,440.5z"/>
		<path d="M201.8,440.5c-0.8-0.2-1.5-0.3-2.2-0.4c-48.3-13.5-84-42.5-107.3-86.9c-8.9-17-14.6-35.2-17.7-54.2
			c-2.4-14.7-3.2-29.6-2.1-44.5c3.7-48.9,22.4-91.3,55.5-127.3c24.7-26.7,54.6-45.3,89.6-55.6c11.9-3.5,24-5.7,36.3-6.7
			c8.5-0.7,17-0.8,25.4-0.2c27.6,1.8,53.3,9.7,76.9,24.1c12.2,7.4,22.3,17.2,31.3,28.2c4.6,5.5,8.7,11.4,12,17.7
			c4.8,9.3,5.5,18.9,1.9,28.7c-1.5,4-3.9,7.3-7,10.1c-5.2,4.6-8.8,10.3-10.4,17.1c-3.2,13.7,3.8,28.1,16.3,33.5
			c3.9,1.7,8,2.1,12.1,2.7c2.8,0.4,5.6,0.6,8.3,1.4c7.9,2.2,12.9,7.6,15.6,15.2c1.1,3.1,1.6,6.3,1.7,9.5c0.3,5.8-0.1,11.6-0.9,17.4
			c-3.1,22.1-9.8,43.2-19.8,63.2c-4.4,8.8-9.4,17.2-15,25.4c-18.8,27.5-42.9,49.1-72.3,64.9c-0.9,0.5-1.7,0.9-3,1.5
			c0-8.4,0-16.4,0-24.4c0-8.1,0-16.3,0-24.4c0-8.1,0-16.1,0-24.2c0-8.1,0-16.3,0-24.4c0-8.1,0-16.1,0-24.1
			c-1.7-0.5-43.1-0.7-45.7-0.1c0,46,0,92,0,137.9c-8.7,3.7-41.4,5.6-56.2,3.4c0-1-0.1-2,0-3c0.4-4.5,0.9-8.9,1.3-13.4
			c0.5-6,1.1-12,1.5-18c0.7-11.6,1.4-23.3,1.7-34.9c0.3-13.3,0.4-26.7,0.3-40c-0.1-9.2-0.5-18.4-1.1-27.6c-1-17-2.7-34-5.9-50.8
			c-0.2-1.1-0.5-2.1-0.8-3.2c-9.8,0-19.4,0-29.1,0c-0.2,1.4-0.5,2.7-0.6,4c-0.6,9.1-1.6,18.2-1.8,27.3c-0.4,13.3-0.4,26.7-0.2,40
			c0.1,8.7,0.6,17.4,1.2,26.1c0.8,11.7,1.7,23.4,3,35c1.6,14.7,3.6,29.4,5.4,44c0.4,3.1,0.9,6.1,1.4,9.1
			C201.8,439.6,201.8,440,201.8,440.5z M210.7,158.7c-0.8,0.5-1.4,0.8-1.8,1.1c-8.2,6.1-14.9,13.4-19.8,22.3
			c-3.6,6.5-5.9,13.5-6.4,20.9c-1.2,14.8,3.1,28.2,10.7,40.8c0.6,1,1.3,1.3,2.4,1.3c7.7,0,15.4,0,23.1,0c1.1,0,1.9-0.3,2.6-1.1
			c4.1-4.3,7.5-9.1,9.6-14.7c1.8-4.7,2.7-9.6,1.8-14.6c-0.7-3.9-2.2-7.5-4.4-10.8c-3.4-4.8-6.8-9.4-10.1-14.2c-2.1-3-4.1-6-5.9-9.2
			c-2.5-4.4-3.4-9.2-2.9-14.2C209.9,163.9,210.3,161.5,210.7,158.7z M357.6,167c10.9,0,19.7-8.9,19.7-19.7
			c-0.1-10.7-9-19.6-19.6-19.6c-10.8,0-19.7,8.9-19.6,19.7C338.1,158.3,346.9,167,357.6,167z M281.6,295.4c2,0.5,43.7,0.5,45.6-0.1
			c-4.1-10-8.2-19.9-12.3-30c-0.8,0-1.5,0-2.2,0c-6,0-12.1,0-18.1,0c-2.6,0-2.2-0.1-3,2c-3.2,8.8-6.4,17.5-9.6,26.3
			C281.9,294.2,281.8,294.8,281.6,295.4z M312.2,258.7c-3.1-7.5-6-14.7-9-22c-1.4,2.2-7.9,20.4-7.9,22
			C300.8,258.7,306.3,258.7,312.2,258.7z"/>
		<path class="st0" d="M210.7,158.7c-0.4,2.8-0.8,5.2-1.1,7.7c-0.6,5,0.4,9.8,2.9,14.2c1.8,3.2,3.8,6.2,5.9,9.2
			c3.3,4.8,6.8,9.5,10.1,14.2c2.3,3.3,3.8,6.8,4.4,10.8c0.9,5.1,0,9.9-1.8,14.6c-2.2,5.6-5.6,10.4-9.6,14.7
			c-0.7,0.8-1.5,1.1-2.6,1.1c-7.7,0-15.4,0-23.1,0c-1.1,0-1.8-0.4-2.4-1.3c-7.6-12.6-11.9-26-10.7-40.8c0.6-7.4,2.8-14.4,6.4-20.9
			c4.9-8.9,11.7-16.3,19.8-22.3C209.4,159.5,209.9,159.2,210.7,158.7z"/>
		<path class="st0" d="M357.6,167c-10.8,0-19.6-8.8-19.6-19.5c0-10.8,8.8-19.7,19.6-19.7c10.7,0,19.6,8.9,19.6,19.6
			C377.4,158.1,368.5,167,357.6,167z"/>
		<path class="st0" d="M281.6,295.4c0.2-0.6,0.3-1.2,0.5-1.8c3.2-8.8,6.4-17.5,9.6-26.3c0.8-2.1,0.4-2,3-2c6,0,12.1,0,18.1,0
			c0.7,0,1.4,0,2.2,0c4.1,10.1,8.2,20,12.3,30C325.3,295.9,283.6,295.9,281.6,295.4z"/>
		<path class="st0" d="M312.2,258.7c-5.9,0-11.4,0-17,0c0.1-1.6,6.5-19.8,7.9-22C306.2,244,309.1,251.2,312.2,258.7z"/>
	</g>
</g>
</svg>
